# xmcd
#
# Track frame offsets:
#	150
#	12489
#	26259
#	40164
#	53961
#	67326
#	83067
#	102372
#	119139
#	137000
#	157412
#	175745
#	190082
#
# Disc length: 2704 seconds
#
# Revision: 1
# Processed by: cddbd v1.5.2PL0 Copyright (c) Steve Scherf et al.
# Submitted via: audiograbber 1.83.01
#
DISCID=b80a8e0d
DTITLE=Trio Santi Bailor - Ale Genio, ovvero il passo più lungo della gamba
DYEAR=2006
DGENRE=Ray Charles
TTITLE0=1 Mess Around
TTITLE1=2 Mary Ann
TTITLE2=3 Blackjack
TTITLE3=4 Tell Me How Do You Feel
TTITLE4=5 Hard Times
TTITLE5=6 You Be My Baby
TTITLE6=7 Georgia On My mind
TTITLE7=8 Let' Go Get Stoned
TTITLE8=9 Hallelujah I Love Her So
TTITLE9=10 What'd I Say
TTITLE10=11 Rockhouse
TTITLE11=12 You  Are My Sunshine
TTITLE12=13 Wahat Kind Of Man Are You
EXTD=
EXTT0=
EXTT1=
EXTT2=
EXTT3=
EXTT4=
EXTT5=
EXTT6=
EXTT7=
EXTT8=
EXTT9=
EXTT10=
EXTT11=
EXTT12=
PLAYORDER=
